<svg width="12" height="12" viewBox="0 0 12 12" fill="none" xmlns="http://www.w3.org/2000/svg">
    <g id="Component 55">
        <path id="Star 7" d="M5.20948 0.536657C5.55309 -0.0851364 6.44691 -0.0851352 6.79052 0.536658L8.06356 2.84031C8.19308 3.0747 8.41995 3.23952 8.68289 3.29028L11.2672 3.78914C11.9647 3.92379 12.2409 4.77386 11.7557 5.2928L9.95824 7.21539C9.77535 7.41101 9.68869 7.67771 9.72167 7.94347L10.0458 10.5554C10.1333 11.2604 9.41019 11.7858 8.76672 11.4847L6.38277 10.3693C6.14021 10.2558 5.85979 10.2558 5.61723 10.3693L3.23328 11.4847C2.58981 11.7858 1.86669 11.2604 1.95418 10.5554L2.27833 7.94347C2.31131 7.67771 2.22465 7.41101 2.04176 7.21539L0.244251 5.2928C-0.240927 4.77386 0.035281 3.92379 0.732824 3.78914L3.31711 3.29028C3.58005 3.23952 3.80692 3.07469 3.93644 2.8403L5.20948 0.536657Z" fill="#F89E19"/>
    </g>
</svg>
